<?xml version="1.0" encoding="UTF-8"?>
<svg xmlns="http://www.w3.org/2000/svg" xmlns:xlink="http://www.w3.org/1999/xlink" width="128px" height="128px" viewBox="0 0 128 128" version="1.1">
<g id="surface1">
<path style=" stroke:none;fill-rule:nonzero;fill:rgb(30.19608%,41.960785%,99.607843%);fill-opacity:1;" d="M 110.222656 34.972656 C 109.222656 34.480469 108.792969 35.417969 108.210938 35.894531 C 108.007812 36.046875 107.839844 36.25 107.671875 36.433594 C 106.207031 38 104.5 39.03125 102.269531 38.90625 C 99.007812 38.722656 96.222656 39.753906 93.757812 42.257812 C 93.234375 39.167969 91.496094 37.324219 88.851562 36.140625 C 87.464844 35.527344 86.066406 34.910156 85.09375 33.574219 C 84.417969 32.621094 84.234375 31.5625 83.894531 30.515625 C 83.679688 29.886719 83.464844 29.238281 82.742188 29.132812 C 81.957031 29.007812 81.648438 29.667969 81.339844 30.222656 C 80.109375 32.484375 79.632812 34.972656 79.679688 37.492188 C 79.785156 43.164062 82.171875 47.683594 86.910156 50.894531 C 87.449219 51.261719 87.589844 51.632812 87.417969 52.167969 C 87.097656 53.277344 86.710938 54.351562 86.371094 55.457031 C 86.15625 56.164062 85.832031 56.320312 85.078125 56.011719 C 82.480469 54.921875 80.230469 53.308594 78.246094 51.355469 C 74.875 48.082031 71.828125 44.46875 68.027344 41.640625 C 67.148438 40.988281 66.246094 40.367188 65.320312 39.78125 C 61.441406 36.003906 65.828125 32.898438 66.84375 32.527344 C 67.90625 32.144531 67.214844 30.824219 63.78125 30.839844 C 60.347656 30.855469 57.210938 32.007812 53.207031 33.542969 C 52.625 33.773438 52.007812 33.941406 51.378906 34.082031 C 47.746094 33.390625 43.976562 33.234375 40.035156 33.679688 C 32.617188 34.511719 26.695312 38.03125 22.339844 44.039062 C 17.105469 51.265625 15.875 59.46875 17.382812 68.03125 C 18.96875 77.050781 23.554688 84.519531 30.601562 90.363281 C 37.910156 96.414062 46.328125 99.382812 55.933594 98.8125 C 61.765625 98.476562 68.257812 97.691406 75.585938 91.46875 C 77.429688 92.390625 79.371094 92.757812 82.585938 93.035156 C 85.0625 93.265625 87.449219 92.914062 89.296875 92.527344 C 92.1875 91.914062 91.988281 89.222656 90.941406 88.734375 C 82.464844 84.769531 84.324219 86.382812 82.632812 85.074219 C 86.941406 79.957031 93.433594 74.640625 95.972656 57.410156 C 96.175781 56.042969 96.003906 55.183594 95.972656 54.078125 C 95.960938 53.402344 96.113281 53.140625 96.882812 53.0625 C 99.007812 52.816406 101.066406 52.234375 102.960938 51.1875 C 108.453125 48.175781 110.671875 43.226562 111.195312 37.292969 C 111.269531 36.386719 111.179688 35.449219 110.222656 34.972656 Z M 62.351562 88.363281 C 54.132812 81.878906 50.148438 79.742188 48.5 79.832031 C 46.960938 79.925781 47.238281 81.691406 47.578125 82.84375 C 47.929688 83.984375 48.390625 84.765625 49.039062 85.765625 C 49.484375 86.425781 49.792969 87.410156 48.59375 88.148438 C 45.945312 89.792969 41.34375 87.59375 41.128906 87.488281 C 35.773438 84.320312 31.296875 80.140625 28.140625 74.425781 C 25.09375 68.921875 23.324219 63.019531 23.03125 56.71875 C 22.953125 55.199219 23.402344 54.660156 24.910156 54.382812 C 26.894531 54.015625 28.941406 53.9375 30.925781 54.230469 C 39.3125 55.457031 46.453125 59.222656 52.4375 65.1875 C 55.855469 68.582031 58.441406 72.640625 61.101562 76.605469 C 63.933594 80.816406 66.980469 84.828125 70.859375 88.117188 C 72.230469 89.269531 73.320312 90.144531 74.367188 90.792969 C 71.214844 91.144531 65.949219 91.222656 62.351562 88.363281 Z M 66.324219 62.632812 C 66.453125 62.101562 66.929688 61.714844 67.503906 61.714844 C 67.648438 61.714844 67.789062 61.742188 67.921875 61.789062 C 68.089844 61.851562 68.242188 61.945312 68.367188 62.082031 C 68.582031 62.296875 68.707031 62.605469 68.707031 62.929688 C 68.707031 63.605469 68.167969 64.140625 67.488281 64.140625 C 66.898438 64.148438 66.394531 63.714844 66.304688 63.128906 C 66.277344 62.964844 66.285156 62.796875 66.324219 62.632812 Z M 78.125 69.386719 C 77.476562 69.636719 76.828125 69.832031 76.199219 69.859375 C 75.03125 69.921875 73.753906 69.445312 73.0625 68.859375 C 71.984375 67.953125 71.214844 67.445312 70.890625 65.863281 C 70.753906 65.1875 70.828125 64.140625 70.953125 63.542969 C 71.230469 62.25 70.921875 61.421875 70.015625 60.667969 C 69.277344 60.054688 68.335938 59.886719 67.304688 59.886719 C 66.921875 59.886719 66.566406 59.714844 66.304688 59.578125 C 65.875 59.363281 65.519531 58.824219 65.859375 58.164062 C 65.96875 57.949219 66.492188 57.425781 66.613281 57.335938 C 68.015625 56.535156 69.628906 56.796875 71.121094 57.394531 C 72.507812 57.964844 73.554688 59.007812 75.0625 60.484375 C 76.601562 62.265625 76.878906 62.757812 77.753906 64.097656 C 78.449219 65.140625 79.078125 66.21875 79.507812 67.445312 C 79.730469 68.089844 79.527344 68.636719 78.925781 69.023438 C 78.679688 69.179688 78.398438 69.285156 78.125 69.386719 Z M 78.125 69.386719 "/>
</g>
</svg>
