<?xml version="1.0" encoding="UTF-8"?>
<svg xmlns="http://www.w3.org/2000/svg" xmlns:xlink="http://www.w3.org/1999/xlink" width="128px" height="128px" viewBox="0 0 128 128" version="1.1">
  <defs>
    <clipPath id="clip1">
      <path d="M 21.054688 21.304688 L 107 21.304688 L 107 106.484375 L 21.054688 106.484375 Z M 21.054688 21.304688 "/>
    </clipPath>
  </defs>
  <g id="surface1">
    <g clip-path="url(#clip1)" clip-rule="nonzero">
      <path style=" stroke:none;fill-rule:nonzero;fill:rgb(0%,0%,0%);fill-opacity:1;" d="M 54.007812 52.296875 L 54.007812 44.203125 C 54.007812 43.53125 54.25 43.015625 54.859375 42.679688 L 71.117188 33.304688 C 73.335938 32.023438 75.984375 31.421875 78.703125 31.421875 C 88.921875 31.421875 95.390625 39.34375 95.390625 47.773438 C 95.390625 56.203125 95.390625 49.054688 95.296875 49.726562 L 78.429688 39.835938 C 77.40625 39.234375 76.390625 39.234375 75.359375 39.835938 L 53.984375 52.28125 Z M 92 83.8125 L 92 64.476562 C 92 63.289062 91.484375 62.4375 90.46875 61.835938 L 69.09375 49.390625 L 76.070312 45.375 C 76.671875 45.039062 77.171875 45.039062 77.773438 45.375 L 94.039062 54.75 C 98.726562 57.484375 101.867188 63.273438 101.867188 68.882812 C 101.867188 74.492188 98.03125 81.328125 91.976562 83.796875 Z M 48.984375 66.789062 L 42 62.703125 C 41.398438 62.367188 41.148438 61.851562 41.148438 61.179688 L 41.148438 42.429688 C 41.148438 33.320312 48.125 26.414062 57.59375 26.414062 C 67.054688 26.414062 64.5 27.609375 67.304688 29.734375 L 50.523438 39.445312 C 49.492188 40.054688 49 40.90625 49 42.09375 L 49 66.789062 Z M 64.015625 75.46875 L 54.007812 69.84375 L 54.007812 57.914062 L 64.015625 52.28125 L 74.03125 57.914062 L 74.03125 69.84375 Z M 70.460938 101.367188 C 66.875 101.367188 63.554688 100.179688 60.75 98.046875 L 77.53125 88.335938 C 78.554688 87.734375 79.054688 86.882812 79.054688 85.695312 L 79.054688 61 L 86.117188 65.085938 C 86.726562 65.421875 86.96875 65.9375 86.96875 66.609375 L 86.96875 85.359375 C 86.96875 94.460938 79.90625 101.367188 70.445312 101.367188 Z M 50.257812 82.375 L 34 73 C 29.3125 70.265625 26.171875 64.476562 26.171875 58.867188 C 26.171875 53.257812 30.09375 46.421875 36.125 43.953125 L 36.125 63.375 C 36.125 64.570312 36.640625 65.421875 37.65625 66.023438 L 58.960938 78.382812 L 51.984375 82.390625 C 51.375 82.726562 50.882812 82.726562 50.273438 82.390625 Z M 49.335938 96.34375 C 39.710938 96.34375 32.648438 89.101562 32.648438 80.15625 C 32.648438 71.210938 32.734375 78.789062 32.828125 78.117188 L 49.601562 87.828125 C 50.632812 88.429688 51.640625 88.429688 52.671875 87.828125 L 74.046875 75.46875 L 74.046875 83.5625 C 74.046875 84.242188 73.796875 84.75 73.195312 85.09375 L 56.9375 94.460938 C 54.71875 95.742188 52.070312 96.34375 49.351562 96.34375 Z M 70.460938 106.484375 C 80.773438 106.484375 89.367188 99.148438 91.335938 89.4375 C 100.875 86.96875 107.015625 78.023438 107.015625 68.914062 C 107.015625 59.8125 104.460938 57.164062 99.859375 52.992188 C 100.289062 51.203125 100.539062 49.40625 100.539062 47.632812 C 100.539062 35.453125 90.648438 26.328125 79.234375 26.328125 C 67.820312 26.328125 74.726562 26.664062 72.5 27.429688 C 68.671875 23.679688 63.398438 21.304688 57.59375 21.304688 C 47.273438 21.304688 38.6875 28.632812 36.710938 38.34375 C 27.179688 40.8125 21.039062 49.765625 21.039062 58.867188 C 21.039062 67.976562 23.59375 70.625 28.195312 74.796875 C 27.765625 76.585938 27.515625 78.382812 27.515625 80.15625 C 27.515625 92.335938 37.40625 101.460938 48.820312 101.460938 C 60.234375 101.460938 53.328125 101.125 55.546875 100.359375 C 59.382812 104.101562 64.65625 106.484375 70.460938 106.484375 Z M 70.460938 106.484375 "/>
    </g>
  </g>
</svg>
